<?xml version="1.0" encoding="utf-8"?>
<!-- Generator: Adobe Illustrator 16.0.0, SVG Export Plug-In . SVG Version: 6.00 Build 0)  -->
<!DOCTYPE svg PUBLIC "-//W3C//DTD SVG 1.1//EN" "http://www.w3.org/Graphics/SVG/1.1/DTD/svg11.dtd">
<svg version="1.1" id="Layer_1" xmlns="http://www.w3.org/2000/svg" xmlns:xlink="http://www.w3.org/1999/xlink" x="0px" y="0px"
	 width="442.199px" height="130.391px" viewBox="0 0 442.199 130.391" enable-background="new 0 0 442.199 130.391"
	 xml:space="preserve">
<rect x="-0.002" y="-0.002" fill="#010101" width="442.203" height="130.395"/>
<rect x="5.667" y="5.667" fill="#010101" stroke="#FFFFFF" stroke-miterlimit="10" width="430.865" height="119.056"/>
<g enable-background="new    ">
	<path fill="#FFFFFF" d="M16.393,13.514h9.667l15.381,20.042V13.514h10.254v37.918h-9.079l-15.969-20.8v20.801H16.393V13.514z"/>
	<path fill="#FFFFFF" d="M57.033,32.582v-0.108c0-10.888,8.652-19.717,20.188-19.717c11.536,0,20.081,8.721,20.081,19.609v0.107
		c0,10.888-8.652,19.717-20.188,19.717C65.578,52.191,57.033,43.469,57.033,32.582z M86.727,32.582v-0.108
		c0-5.471-3.899-10.238-9.613-10.238c-5.661,0-9.453,4.658-9.453,10.13v0.107c0,5.471,3.898,10.238,9.56,10.238
		C82.935,42.711,86.727,38.052,86.727,32.582z"/>
	<path fill="#FFFFFF" d="M102.694,13.514h17.677c5.715,0,9.667,1.518,12.177,4.117c2.189,2.167,3.311,5.092,3.311,8.83v0.107
		c0,5.797-3.044,9.643-7.69,11.646l8.919,13.217h-11.963l-7.53-11.483h-0.107h-4.433v11.483h-10.361V13.514L102.694,13.514z
		 M119.891,31.715c3.525,0,5.554-1.733,5.554-4.496v-0.108c0-2.979-2.136-4.495-5.607-4.495h-6.783v9.101L119.891,31.715
		L119.891,31.715z"/>
	<path fill="#FFFFFF" d="M150.224,22.723h-11.215v-9.208H171.8v9.208h-11.215v28.709h-10.361V22.723z"/>
	<path fill="#FFFFFF" d="M176.338,13.514h10.361v14.192h13.298V13.514h10.361v37.918h-10.361V37.024h-13.298v14.409h-10.361V13.514z
		"/>
	<path fill="#FFFFFF" d="M229.261,13.514h10.948l6.516,21.938l7.209-22.046h8.92l7.209,22.046l6.517-21.938h10.733l-12.496,38.189
		h-9.025l-7.53-21.83l-7.477,21.83h-9.025L229.261,13.514z"/>
	<path fill="#FFFFFF" d="M299.541,13.243h9.986l15.916,38.188h-11.109l-2.723-6.771h-14.42l-2.67,6.771h-10.896L299.541,13.243z
		 M308.62,36.482l-4.166-10.778l-4.22,10.778H308.62z"/>
	<path fill="#FFFFFF" d="M329.073,13.514h10.36v28.709h18.104v9.208h-28.466L329.073,13.514L329.073,13.514z"/>
	<path fill="#FFFFFF" d="M361.971,13.514h30.066v8.938h-19.812v5.741h17.943v8.288h-17.943v6.014h20.08v8.938h-30.334V13.514z"/>
	<path fill="#FFFFFF" d="M394.76,45.799l5.769-6.987c3.686,2.979,7.798,4.55,12.124,4.55c2.775,0,4.271-0.975,4.271-2.6v-0.108
		c0-1.57-1.228-2.438-6.302-3.629c-7.957-1.842-14.1-4.116-14.1-11.917V25c0-7.042,5.502-12.134,14.474-12.134
		c6.354,0,11.322,1.732,15.381,5.037l-5.18,7.422c-3.418-2.438-7.157-3.738-10.468-3.738c-2.512,0-3.738,1.083-3.738,2.438v0.108
		c0,1.733,1.281,2.492,6.462,3.683c8.598,1.896,13.938,4.713,13.938,11.81v0.107c0,7.746-6.033,12.351-15.112,12.351
		C405.655,52.082,399.354,49.97,394.76,45.799z"/>
</g>
<g enable-background="new    ">
	<path fill="#FFFFFF" d="M17.749,76.277h14.077c7.119,0,12.555,1.888,16.307,5.661c3.751,3.774,5.628,8.651,5.628,14.633
		c0,5.864-1.857,10.708-5.57,14.53c-3.713,3.823-8.986,5.734-15.818,5.734H17.749V76.277z M20.86,78.89v35.332H32.2
		c5.2,0,9.531-1.611,12.995-4.834c3.464-3.223,5.195-7.494,5.195-12.817c0-5.205-1.708-9.454-5.123-12.744
		c-3.416-3.291-7.838-4.937-13.268-4.937H20.86z"/>
	<path fill="#FFFFFF" d="M61.424,76.277h10.314c4.321,0,7.625,0.943,9.91,2.83c2.286,1.889,3.428,4.438,3.428,7.65
		c0,4.685-2.555,7.975-7.663,9.871c1.325,0.639,3.111,2.7,5.358,6.184l9.104,14.023h-3.683l-7.011-11.115
		c-2.343-3.719-4.167-6.037-5.472-6.957s-3.216-1.38-5.731-1.38h-5.443v19.452h-3.111V76.277z M64.535,78.89v15.881h6.684
		c3.399,0,5.997-0.691,7.792-2.076c1.795-1.384,2.694-3.344,2.694-5.879c0-2.497-0.913-4.441-2.737-5.836
		c-1.825-1.394-4.447-2.09-7.865-2.09H64.535z"/>
	<path fill="#FFFFFF" d="M124.919,76.277h3.111V98.4c0,6.06-1.566,10.732-4.696,14.022c-3.13,3.291-7.183,4.936-12.157,4.936
		c-4.955,0-8.999-1.626-12.129-4.878c-3.13-3.251-4.696-7.703-4.696-13.354v-22.85h3.14V99.01c0,4.839,1.272,8.623,3.817,11.352
		c2.544,2.729,5.834,4.095,9.867,4.095c4.071,0,7.379-1.379,9.925-4.138c2.544-2.758,3.817-6.673,3.817-11.743L124.919,76.277
		L124.919,76.277z"/>
	<path fill="#FFFFFF" d="M154.823,95.113l15.289-18.836h3.149v40.56h-3.14V80.865l-15.312,18.958l-15.37-18.958v35.972h-3.111
		v-40.56h3.113L154.823,95.113z"/>
	<path fill="#FFFFFF" d="M217.829,78.309v3.454c-3.496-2.07-6.501-3.104-9.017-3.104c-2.42,0-4.442,0.739-6.064,2.221
		c-1.623,1.479-2.435,3.313-2.435,5.502c0,1.567,0.48,2.979,1.44,4.238s2.967,2.468,6.021,3.629c3.054,1.162,5.281,2.13,6.684,2.903
		c1.402,0.773,2.593,1.896,3.572,3.367c0.979,1.472,1.469,3.378,1.469,5.719c0,3.117-1.133,5.749-3.399,7.897
		c-2.267,2.148-5.032,3.223-8.297,3.223c-3.342,0-6.78-1.181-10.314-3.542v-3.688c3.899,2.885,7.279,4.326,10.141,4.326
		c2.381,0,4.393-0.779,6.035-2.337c1.642-1.559,2.463-3.471,2.463-5.735c0-1.723-0.509-3.275-1.527-4.66
		c-1.018-1.384-3.082-2.678-6.192-3.881c-3.11-1.203-5.333-2.172-6.668-2.907c-1.335-0.734-2.47-1.784-3.401-3.147
		c-0.933-1.364-1.398-3.119-1.398-5.268c0-2.979,1.133-5.518,3.399-7.617c2.266-2.098,4.994-3.147,8.182-3.147
		C211.654,75.754,214.756,76.606,217.829,78.309z"/>
	<path fill="#FFFFFF" d="M260.092,79.151v3.427c-4.879-2.612-9.66-3.919-14.348-3.919c-4.993,0-9.171,1.713-12.531,5.139
		c-3.361,3.426-5.042,7.703-5.042,12.832c0,5.188,1.69,9.455,5.07,12.804c3.38,3.35,7.692,5.022,12.937,5.022
		c4.379,0,9.15-1.383,14.317-4.151v3.251c-4.765,2.537-9.517,3.804-14.261,3.804c-6.127,0-11.23-1.979-15.312-5.937
		c-4.081-3.959-6.121-8.889-6.121-14.793c0-5.941,2.084-10.906,6.252-14.895c4.166-3.987,9.133-5.98,14.895-5.98
		C250.479,75.754,255.193,76.886,260.092,79.151z"/>
	<path fill="#FFFFFF" d="M299.618,76.277v40.56h-3.14v-19.22h-26.853v19.22h-3.11v-40.56h3.11v18.728h26.853V76.277H299.618z"/>
	<path fill="#FFFFFF" d="M328.529,75.754c5.949,0,10.992,2.019,15.129,6.055c4.136,4.035,6.203,8.956,6.203,14.764
		c0,5.786-2.067,10.697-6.203,14.732c-4.137,4.036-9.18,6.054-15.129,6.054c-5.932,0-10.955-2.018-15.071-6.054
		c-4.117-4.035-6.176-8.946-6.176-14.732c0-5.808,2.059-10.729,6.176-14.764C317.573,77.772,322.598,75.754,328.529,75.754z
		 M328.645,114.455c5.008,0,9.234-1.728,12.68-5.183s5.167-7.688,5.167-12.702c0-5.031-1.724-9.275-5.167-12.73
		c-3.444-3.455-7.672-5.182-12.68-5.182c-5.028,0-9.285,1.727-12.768,5.182c-3.484,3.455-5.225,7.699-5.225,12.73
		c0,5.014,1.74,9.247,5.225,12.702C319.359,112.728,323.615,114.455,328.645,114.455z"/>
	<path fill="#FFFFFF" d="M377.102,75.754c5.949,0,10.992,2.019,15.129,6.055c4.136,4.035,6.203,8.956,6.203,14.764
		c0,5.786-2.067,10.697-6.203,14.732c-4.137,4.036-9.18,6.054-15.129,6.054c-5.932,0-10.955-2.018-15.071-6.054
		c-4.117-4.035-6.177-8.946-6.177-14.732c0-5.808,2.06-10.729,6.177-14.764C366.146,77.772,371.17,75.754,377.102,75.754z
		 M377.216,114.455c5.009,0,9.235-1.728,12.681-5.183c3.444-3.455,5.166-7.688,5.166-12.702c0-5.031-1.723-9.275-5.166-12.73
		c-3.444-3.455-7.672-5.182-12.681-5.182c-5.028,0-9.284,1.727-12.767,5.182c-3.484,3.455-5.225,7.699-5.225,12.73
		c0,5.014,1.739,9.247,5.225,12.702C367.932,112.728,372.188,114.455,377.216,114.455z"/>
	<path fill="#FFFFFF" d="M409.208,76.277v37.945h19.907v2.613h-23.02V76.277H409.208z"/>
</g>
<line fill="none" stroke="#FFFFFF" stroke-width="2.126" stroke-miterlimit="10" x1="16.818" y1="62.277" x2="427.785" y2="62.277"/>
<g>
	<g>
		<path d="M386.873,116.359c-0.571,0-1.095-0.265-1.438-0.727l-0.022-0.031c-0.129-0.178-0.246-0.338-1.423-4.326
			c-1.546,0.724-3.183,1.194-4.884,1.405c-0.325,0.762-1.082,1.297-1.962,1.297c-0.872,0-1.624-0.525-1.955-1.276
			c-1.978-0.227-3.908-0.815-5.674-1.729c-0.464,1.486-3.927,0.367-3.312-1.521c-0.566-0.003-1.098-0.225-1.498-0.625
			c-0.596-0.598-0.764-1.472-0.499-2.225c-1.913-2.402-3.095-5.243-3.446-8.289c-0.718-0.342-1.206-1.072-1.206-1.924
			c0-0.854,0.489-1.584,1.209-1.927c0.355-3.039,1.537-5.874,3.447-8.271c-0.273-0.756-0.108-1.637,0.495-2.241
			c0.403-0.402,0.939-0.625,1.509-0.625c0.262,0,0.515,0.047,0.752,0.136c2.39-1.87,5.204-3.021,8.214-3.363
			c0.325-0.763,1.083-1.299,1.964-1.299c0.888,0,1.651,0.546,1.972,1.319c2.971,0.37,5.742,1.53,8.095,3.388
			c0.268-0.118,0.561-0.181,0.861-0.181c0.57,0,1.106,0.223,1.51,0.625c0.403,0.403,0.625,0.939,0.625,1.51
			c0,0.307-0.065,0.604-0.187,0.876c1.828,2.348,2.967,5.104,3.325,8.053c0.81,0.304,1.388,1.085,1.388,2
			c0,0.913-0.576,1.694-1.386,1.998c-0.354,2.953-1.492,5.716-3.322,8.068c0.344,0.783,0.196,1.731-0.443,2.371
			c-0.403,0.402-0.939,0.625-1.51,0.625c-0.295,0-0.581-0.06-0.845-0.174c-0.045,0.035-0.089,0.069-0.134,0.104
			c1.607,4.739,1.604,4.959,1.601,5.19l-0.001,0.033C388.667,115.587,387.868,116.359,386.873,116.359z"/>
	</g>
	<g>
		<g>
			<circle fill="#FFFFFF" cx="377.144" cy="80.932" r="1.169"/>
		</g>
		<g>
			<circle fill="#FFFFFF" cx="377.144" cy="111.843" r="1.169"/>
		</g>
	</g>
	<g>
		<g>
			<circle fill="#FFFFFF" cx="392.6" cy="96.388" r="1.17"/>
		</g>
		<g>
			<circle fill="#FFFFFF" cx="361.688" cy="96.388" r="1.17"/>
		</g>
	</g>
	<g>
		<g>
			<circle fill="#FFFFFF" cx="388.073" cy="85.459" r="1.17"/>
		</g>
		<g>
			<circle fill="#FFFFFF" cx="366.215" cy="107.316" r="1.17"/>
		</g>
	</g>
	<g>
		<g>
			<circle fill="#FFFFFF" cx="366.215" cy="85.459" r="1.17"/>
		</g>
		<g>
			<circle fill="#FFFFFF" cx="388.073" cy="107.316" r="1.17"/>
		</g>
	</g>
	<g>
		<circle fill="#FFFFFF" cx="377.059" cy="96.399" r="15.445"/>
		<path d="M377.059,111.981c-8.592,0-15.582-6.99-15.582-15.582c0-8.593,6.99-15.583,15.582-15.583
			c8.593,0,15.583,6.99,15.583,15.583C392.642,104.99,385.651,111.981,377.059,111.981z M377.059,81.091
			c-8.44,0-15.307,6.867-15.307,15.308s6.866,15.307,15.307,15.307s15.308-6.866,15.308-15.307S385.499,81.091,377.059,81.091z"/>
	</g>
	<g>
		<circle fill="#FFFFFF" cx="377.059" cy="96.399" r="14.296"/>
		<path d="M377.059,110.831c-7.959,0-14.433-6.475-14.433-14.433c0-7.96,6.474-14.435,14.433-14.435
			c7.96,0,14.434,6.475,14.434,14.435C391.492,104.357,385.019,110.831,377.059,110.831z M377.059,82.24
			c-7.807,0-14.158,6.351-14.158,14.158c0,7.807,6.352,14.158,14.158,14.158c7.808,0,14.158-6.352,14.158-14.158
			C391.217,88.591,384.866,82.24,377.059,82.24z"/>
	</g>
	<g>
		<rect x="374.988" y="83.343" width="4.142" height="0.907"/>
	</g>
	<g>
		<g>
			<path fill="#FFFFFF" d="M378.77,91.67c-0.248-0.784-0.087-1.534,0.358-1.675s1.007,0.381,1.255,1.165
				c0.197,0.623,0.136,1.224-0.121,1.515c0.836,2.369,7.479,21.209,7.468,21.881c0,0.008,0,0.015,0,0.021
				c-0.021,0.793-1.048,1.116-1.52,0.48c-0.004-0.006-0.009-0.012-0.013-0.018c-0.396-0.544-5.781-19.78-6.458-22.2
				C379.362,92.749,378.966,92.293,378.77,91.67z"/>
			<path d="M386.873,115.532c-0.307,0-0.589-0.144-0.774-0.393l-0.014-0.02c-0.398-0.549-5.4-18.389-6.457-22.17
				c-0.411-0.143-0.793-0.618-0.99-1.239c-0.127-0.401-0.156-0.81-0.084-1.148c0.079-0.367,0.268-0.615,0.532-0.699
				c0.062-0.019,0.127-0.029,0.192-0.029c0.488,0,0.997,0.528,1.235,1.284c0.196,0.621,0.156,1.229-0.097,1.583
				c1.307,3.702,7.462,21.178,7.451,21.856v0.023C387.852,115.176,387.35,115.532,386.873,115.532z M379.278,90.111
				c-0.038,0-0.075,0.005-0.109,0.016c-0.166,0.053-0.289,0.229-0.346,0.494c-0.062,0.293-0.035,0.651,0.078,1.008
				c0.174,0.554,0.532,0.997,0.87,1.078l0.078,0.019l0.022,0.078c2.236,7.997,6.107,21.662,6.437,22.157l0.011,0.015
				c0.136,0.183,0.332,0.282,0.554,0.282c0.345,0,0.708-0.256,0.719-0.683l0.001-0.02c-0.016-0.595-4.697-14.005-7.461-21.834
				l-0.027-0.076l0.054-0.061c0.229-0.261,0.268-0.829,0.093-1.383C380.055,90.579,379.637,90.111,379.278,90.111z"/>
		</g>
	</g>
</g>
<g>
	<g>
		<path d="M335.904,111.275c-1.546,0.724-3.183,1.194-4.884,1.405c-0.325,0.762-1.082,1.297-1.962,1.297
			c-0.872,0-1.624-0.525-1.955-1.276c-1.978-0.227-3.908-0.815-5.674-1.729c-0.464,1.486-0.545,1.599-0.644,1.735l-0.021,0.027
			c-0.342,0.46-0.865,0.726-1.437,0.726c-0.995,0-1.794-0.772-1.819-1.757l-0.002-0.028c-0.003-0.186-0.005-0.336,0.61-2.225
			c-0.566-0.003-1.098-0.225-1.498-0.625c-0.596-0.598-0.764-1.472-0.499-2.225c-1.913-2.402-3.095-5.243-3.446-8.289
			c-0.718-0.342-1.206-1.072-1.206-1.924c0-0.854,0.489-1.584,1.209-1.927c0.355-3.039,1.537-5.874,3.447-8.271
			c-0.273-0.756-0.108-1.637,0.495-2.241c0.403-0.402,0.939-0.625,1.509-0.625c0.262,0,0.515,0.047,0.752,0.136
			c2.39-1.87,5.204-3.021,8.214-3.363c0.325-0.763,1.083-1.299,1.964-1.299c0.888,0,1.651,0.546,1.972,1.319
			c2.971,0.37,5.742,1.53,8.095,3.388c0.268-0.118,0.561-0.181,0.861-0.181c0.57,0,1.106,0.223,1.51,0.625
			c0.403,0.403,0.625,0.939,0.625,1.51c0,0.307-0.065,0.604-0.187,0.876c1.828,2.348,2.967,5.104,3.325,8.053
			c0.81,0.304,1.388,1.085,1.388,2c0,0.913-0.576,1.694-1.386,1.998c-0.354,2.953-1.492,5.716-3.322,8.068
			c0.344,0.783,0.196,1.731-0.443,2.371c-0.403,0.402-0.939,0.625-1.51,0.625c-0.295,0-0.581-0.06-0.845-0.174
			c-0.045,0.035-0.089,0.069-0.134,0.104C339.142,109.277,335.904,111.275,335.904,111.275z"/>
	</g>
	<g>
		<g>
			<circle fill="#FFFFFF" cx="329.058" cy="80.932" r="1.169"/>
		</g>
		<g>
			<circle fill="#FFFFFF" cx="329.058" cy="111.843" r="1.169"/>
		</g>
	</g>
	<g>
		<g>
			<circle fill="#FFFFFF" cx="344.514" cy="96.388" r="1.17"/>
		</g>
		<g>
			<circle fill="#FFFFFF" cx="313.603" cy="96.388" r="1.17"/>
		</g>
	</g>
	<g>
		<g>
			<circle fill="#FFFFFF" cx="339.987" cy="85.459" r="1.17"/>
		</g>
		<g>
			<circle fill="#FFFFFF" cx="318.129" cy="107.316" r="1.17"/>
		</g>
	</g>
	<g>
		<g>
			<circle fill="#FFFFFF" cx="318.129" cy="85.459" r="1.17"/>
		</g>
		<g>
			<circle fill="#FFFFFF" cx="339.987" cy="107.316" r="1.17"/>
		</g>
	</g>
	<g>
		<circle fill="#FFFFFF" cx="328.973" cy="96.399" r="15.445"/>
		<path d="M328.973,111.981c-8.592,0-15.582-6.99-15.582-15.582c0-8.593,6.99-15.583,15.582-15.583
			c8.593,0,15.583,6.99,15.583,15.583C344.556,104.99,337.565,111.981,328.973,111.981z M328.973,81.091
			c-8.44,0-15.307,6.867-15.307,15.308s6.866,15.307,15.307,15.307s15.308-6.866,15.308-15.307S337.413,81.091,328.973,81.091z"/>
	</g>
	<g>
		<circle fill="#FFFFFF" cx="328.973" cy="96.399" r="14.296"/>
		<path d="M328.973,110.831c-7.959,0-14.433-6.475-14.433-14.433c0-7.96,6.474-14.435,14.433-14.435
			c7.96,0,14.434,6.475,14.434,14.435C343.406,104.357,336.933,110.831,328.973,110.831z M328.973,82.24
			c-7.807,0-14.158,6.351-14.158,14.158c0,7.807,6.352,14.158,14.158,14.158c7.808,0,14.158-6.352,14.158-14.158
			C343.131,88.591,336.78,82.24,328.973,82.24z"/>
	</g>
	<g>
		<rect x="326.902" y="83.343" width="4.142" height="0.907"/>
	</g>
	<g>
		<g>
			<path fill="#FFFFFF" d="M327.433,88.771c0.248-0.784,0.087-1.534-0.357-1.675c-0.446-0.141-1.008,0.381-1.256,1.165
				c-0.197,0.624-0.135,1.225,0.121,1.516c-0.836,2.369-7.479,21.208-7.469,21.881c0,0.007,0.001,0.014,0.001,0.021
				c0.021,0.792,1.048,1.116,1.52,0.479c0.005-0.005,0.009-0.012,0.013-0.018c0.396-0.544,5.781-19.78,6.458-22.2
				C326.841,89.85,327.235,89.395,327.433,88.771z"/>
			<path d="M319.329,112.633L319.329,112.633c-0.477,0-0.979-0.355-0.994-0.951l-0.001-0.021c-0.01-0.681,6.145-18.155,7.452-21.857
				c-0.254-0.354-0.294-0.962-0.098-1.583c0.238-0.756,0.747-1.284,1.235-1.284c0.065,0,0.131,0.01,0.192,0.029
				c0.526,0.166,0.723,0.978,0.448,1.848c-0.196,0.621-0.579,1.096-0.989,1.239c-1.445,5.166-6.07,21.634-6.459,22.171l-0.008,0.012
				C319.918,112.49,319.636,112.633,319.329,112.633z M326.924,87.211c-0.358,0-0.776,0.469-0.973,1.092
				c-0.176,0.554-0.137,1.121,0.093,1.382l0.054,0.061l-0.026,0.077c-2.765,7.83-7.446,21.239-7.462,21.833l0.001,0.02
				c0.011,0.427,0.374,0.683,0.719,0.683l0,0c0.222,0,0.418-0.1,0.553-0.281l0.012-0.016c0.328-0.494,4.2-14.159,6.437-22.156
				l0.022-0.078l0.078-0.019c0.338-0.082,0.696-0.525,0.871-1.078c0.221-0.699,0.098-1.387-0.269-1.502
				C326.999,87.216,326.962,87.211,326.924,87.211z"/>
		</g>
	</g>
</g>
</svg>
