<?xml version="1.0" standalone="no"?>
<!DOCTYPE svg PUBLIC "-//W3C//DTD SVG 1.0//EN" "http://www.w3.org/TR/2001/REC-SVG-20010904/DTD/svg10.dtd">
<svg xmlns="http://www.w3.org/2000/svg" xmlns:xlink="http://www.w3.org/1999/xlink" id="body_1" width="221" height="65">

<g transform="matrix(0.49850067 0 0 0.49850067 0.281753 -0)">
    <path d="M-0.002 -0.002L442.201 -0.002L442.201 130.393L-0.002 130.393z" stroke="none" fill="#010101" fill-rule="nonzero" />
    <path d="M5.667 5.667L436.53198 5.667L436.53198 124.723L5.667 124.723z" stroke="#FFFFFF" stroke-width="1" fill="#010101" fill-rule="nonzero" />
	<g>
        <path d="M16.393 13.514L26.06 13.514L41.440998 33.556L41.440998 13.514L51.695 13.514L51.695 51.432L42.615997 51.432L26.646997 30.632L26.646997 51.433L16.393 51.433L16.393 13.514z" stroke="none" fill="#FFFFFF" fill-rule="nonzero" />
        <path d="M57.033 32.582L57.033 32.474C 57.033 21.585999 65.685 12.757 77.221 12.757C 88.757 12.757 97.302 21.478 97.302 32.365997L97.302 32.365997L97.302 32.472996C 97.302 43.360996 88.65 52.189995 77.114 52.189995C 65.578 52.191 57.033 43.469 57.033 32.582zM86.727 32.582L86.727 32.474C 86.727 27.002998 82.827995 22.236 77.114 22.236C 71.452995 22.236 67.660995 26.894001 67.660995 32.366L67.660995 32.366L67.660995 32.473C 67.660995 37.944 71.559 42.711 77.22099 42.711C 82.935 42.711 86.727 38.052 86.727 32.582z" stroke="none" fill="#FFFFFF" fill-rule="nonzero" />
        <path d="M102.694 13.514L120.371 13.514C 126.086 13.514 130.038 15.032 132.548 17.631C 134.737 19.798 135.85901 22.723 135.85901 26.461L135.85901 26.461L135.85901 26.568C 135.85901 32.365 132.815 36.211 128.169 38.214L128.169 38.214L137.08801 51.431L125.125015 51.431L117.59502 39.947998L117.488014 39.947998L113.055016 39.947998L113.055016 51.431L102.694016 51.431L102.694016 13.514L102.694 13.514zM119.891 31.715C 123.416 31.715 125.445 29.982 125.445 27.219L125.445 27.219L125.445 27.111C 125.445 24.132 123.309 22.616001 119.838 22.616001L119.838 22.616001L113.055 22.616001L113.055 31.717001L119.891 31.715z" stroke="none" fill="#FFFFFF" fill-rule="nonzero" />
        <path d="M150.224 22.723L139.009 22.723L139.009 13.514999L171.8 13.514999L171.8 22.723L160.585 22.723L160.585 51.432L150.224 51.432L150.224 22.723z" stroke="none" fill="#FFFFFF" fill-rule="nonzero" />
        <path d="M176.338 13.514L186.699 13.514L186.699 27.706001L199.99701 27.706001L199.99701 13.514L210.358 13.514L210.358 51.432L199.99701 51.432L199.99701 37.024L186.699 37.024L186.699 51.433L176.33801 51.433L176.33801 13.514L176.338 13.514z" stroke="none" fill="#FFFFFF" fill-rule="nonzero" />
        <path d="M229.261 13.514L240.209 13.514L246.725 35.452L253.934 13.406L262.854 13.406L270.06302 35.452L276.58002 13.514L287.31302 13.514L274.81702 51.703L265.79202 51.703L258.26202 29.873L250.78502 51.703L241.76003 51.703L229.261 13.514z" stroke="none" fill="#FFFFFF" fill-rule="nonzero" />
        <path d="M299.541 13.243L309.52698 13.243L325.443 51.431L314.33398 51.431L311.611 44.66L297.19098 44.66L294.52097 51.431L283.62497 51.431L299.541 13.243zM308.62 36.482L304.454 25.703999L300.234 36.482L308.62 36.482z" stroke="none" fill="#FFFFFF" fill-rule="nonzero" />
        <path d="M329.073 13.514L339.43298 13.514L339.43298 42.223L357.537 42.223L357.537 51.431L329.07098 51.431L329.073 13.514z" stroke="none" fill="#FFFFFF" fill-rule="nonzero" />
        <path d="M361.971 13.514L392.03702 13.514L392.03702 22.452L372.225 22.452L372.225 28.193L390.168 28.193L390.168 36.481003L372.225 36.481003L372.225 42.495003L392.305 42.495003L392.305 51.433002L361.971 51.433002L361.971 13.514z" stroke="none" fill="#FFFFFF" fill-rule="nonzero" />
        <path d="M394.76 45.799L400.52902 38.812C 404.21503 41.791 408.32703 43.362 412.653 43.362C 415.428 43.362 416.924 42.387 416.924 40.762L416.924 40.762L416.924 40.654C 416.924 39.084 415.696 38.216 410.622 37.024998C 402.665 35.183 396.522 32.908997 396.522 25.107998L396.522 25.107998L396.522 25C 396.522 17.958 402.02402 12.866 410.996 12.866C 417.35 12.866 422.318 14.598001 426.377 17.903L426.377 17.903L421.19702 25.325C 417.77902 22.887001 414.04 21.587002 410.72903 21.587002C 408.21704 21.587002 406.99103 22.670002 406.99103 24.025002L406.99103 24.025002L406.99103 24.133001C 406.99103 25.866001 408.27203 26.625002 413.45303 27.816002C 422.05103 29.712002 427.39102 32.529003 427.39102 39.626003L427.39102 39.626003L427.39102 39.733C 427.39102 47.479 421.35803 52.084 412.27902 52.084C 405.655 52.082 399.354 49.97 394.76 45.799z" stroke="none" fill="#FFFFFF" fill-rule="nonzero" />
	</g>
	<g>
        <path d="M17.749 76.277L31.826 76.277C 38.945 76.277 44.381 78.165 48.133 81.938C 51.884 85.712006 53.760998 90.589005 53.760998 96.57101C 53.760998 102.435005 51.904 107.27901 48.190998 111.101006C 44.477997 114.924 39.204998 116.83501 32.372997 116.83501L32.372997 116.83501L17.749 116.83501L17.749 76.277zM20.86 78.89L20.86 114.222L32.2 114.222C 37.4 114.222 41.731003 112.611 45.195 109.388C 48.659 106.165 50.39 101.894 50.39 96.571C 50.39 91.366 48.682 87.117 45.267 83.826996C 41.850998 80.535995 37.428997 78.89 31.998999 78.89L31.998999 78.89L20.86 78.89z" stroke="none" fill="#FFFFFF" fill-rule="nonzero" />
        <path d="M61.424 76.277L71.738 76.277C 76.059 76.277 79.363 77.22 81.647995 79.107C 83.934 80.996 85.076 83.545006 85.076 86.757C 85.076 91.442 82.520996 94.732 77.412994 96.628006C 78.73799 97.267006 80.523994 99.328 82.770996 102.812004L82.770996 102.812004L91.875 116.83501L88.192 116.83501L81.181 105.72001C 78.838 102.00101 77.014 99.68301 75.709 98.76301C 74.404 97.84301 72.493 97.38301 69.978 97.38301L69.978 97.38301L64.534996 97.38301L64.534996 116.83501L61.423996 116.83501L61.423996 76.277L61.424 76.277zM64.535 78.89L64.535 94.770996L71.219 94.770996C 74.618004 94.770996 77.216 94.079994 79.011 92.695C 80.806 91.311 81.705 89.351 81.705 86.816C 81.705 84.319 80.792 82.375 78.968 80.98C 77.143005 79.586006 74.521 78.89001 71.103004 78.89001L71.103004 78.89001L64.535 78.89001z" stroke="none" fill="#FFFFFF" fill-rule="nonzero" />
        <path d="M124.919 76.277L128.03 76.277L128.03 98.4C 128.03 104.46 126.464 109.132 123.334 112.422005C 120.204 115.713005 116.151 117.358 111.177 117.358C 106.222 117.358 102.178 115.732 99.048004 112.48C 95.91801 109.229004 94.352005 104.777 94.352005 99.12601L94.352005 99.12601L94.352005 76.27601L97.492004 76.27601L97.492004 99.01C 97.492004 103.849 98.76401 107.633 101.309006 110.362C 103.853004 113.091 107.143005 114.457 111.176 114.457C 115.247 114.457 118.555 113.078 121.101006 110.319C 123.645004 107.561 124.91801 103.646 124.91801 98.576004L124.91801 98.576004L124.919 76.277z" stroke="none" fill="#FFFFFF" fill-rule="nonzero" />
        <path d="M154.823 95.113L170.112 76.277L173.261 76.277L173.261 116.837006L170.121 116.837006L170.121 80.865L154.809 99.823L139.43901 80.865L139.43901 116.837L136.328 116.837L136.328 76.27699L139.44101 76.27699L154.823 95.113z" stroke="none" fill="#FFFFFF" fill-rule="nonzero" />
        <path d="M217.829 78.309L217.829 81.763C 214.333 79.693 211.32799 78.659 208.812 78.659C 206.392 78.659 204.37 79.397995 202.748 80.88C 201.125 82.35899 200.313 84.193 200.313 86.381996C 200.313 87.949 200.793 89.36099 201.753 90.619995C 202.71301 91.879 204.72 93.088 207.774 94.24899C 210.828 95.410995 213.05501 96.37899 214.45801 97.15199C 215.86 97.924995 217.05101 99.048 218.03001 100.51899C 219.00902 101.99099 219.49901 103.89699 219.49901 106.23799C 219.49901 109.35499 218.36601 111.98699 216.1 114.134995C 213.83301 116.283 211.06801 117.357994 207.80301 117.357994C 204.46101 117.357994 201.02301 116.176994 197.48901 113.815994L197.48901 113.815994L197.48901 110.12799C 201.38802 113.01299 204.76802 114.453995 207.63002 114.453995C 210.01102 114.453995 212.02303 113.674995 213.66502 112.117C 215.30702 110.558 216.12802 108.645996 216.12802 106.381996C 216.12802 104.659 215.61902 103.106995 214.60103 101.722C 213.58302 100.338 211.51903 99.044 208.40903 97.841C 205.29903 96.638 203.07602 95.66901 201.74103 94.934006C 200.40602 94.200005 199.27103 93.15001 198.34003 91.787C 197.40703 90.423004 196.94203 88.668 196.94203 86.519005C 196.94203 83.54001 198.07503 81.00101 200.34103 78.90201C 202.60704 76.80401 205.33504 75.755005 208.52304 75.755005C 211.654 75.754 214.756 76.606 217.829 78.309z" stroke="none" fill="#FFFFFF" fill-rule="nonzero" />
        <path d="M260.092 79.151L260.092 82.578C 255.21301 79.966 250.432 78.659004 245.74402 78.659004C 240.75102 78.659004 236.57301 80.372 233.21301 83.798004C 229.85202 87.22401 228.17102 91.50101 228.17102 96.630005C 228.17102 101.81801 229.86102 106.08501 233.24103 109.434006C 236.62103 112.784004 240.93303 114.45601 246.17802 114.45601C 250.55702 114.45601 255.32802 113.073006 260.49503 110.30501L260.49503 110.30501L260.49503 113.55601C 255.73003 116.09301 250.97803 117.36001 246.23402 117.36001C 240.10703 117.36001 235.00403 115.38101 230.92203 111.42301C 226.84103 107.46401 224.80103 102.53401 224.80103 96.63001C 224.80103 90.68901 226.88503 85.724014 231.05302 81.735016C 235.21902 77.74802 240.18602 75.75501 245.94803 75.75501C 250.479 75.754 255.193 76.886 260.092 79.151z" stroke="none" fill="#FFFFFF" fill-rule="nonzero" />
        <path d="M299.618 76.277L299.618 116.837006L296.478 116.837006L296.478 97.617004L269.625 97.617004L269.625 116.837006L266.515 116.837006L266.515 76.27701L269.625 76.27701L269.625 95.005005L296.478 95.005005L296.478 76.277L299.618 76.277z" stroke="none" fill="#FFFFFF" fill-rule="nonzero" />
        <path d="M328.529 75.754C 334.478 75.754 339.521 77.772995 343.658 81.809C 347.79398 85.843994 349.861 90.765 349.861 96.573C 349.861 102.359 347.794 107.27 343.658 111.305C 339.521 115.341 334.478 117.359 328.529 117.359C 322.597 117.359 317.574 115.341 313.45798 111.305C 309.34097 107.270004 307.28198 102.359 307.28198 96.573C 307.28198 90.765 309.34097 85.843994 313.45798 81.809C 317.573 77.772 322.598 75.754 328.529 75.754zM328.645 114.455C 333.65298 114.455 337.879 112.727005 341.32498 109.272C 344.77097 105.817 346.49197 101.584 346.49197 96.57001C 346.49197 91.53901 344.76797 87.295006 341.32498 83.84001C 337.88098 80.38501 333.65298 78.65801 328.645 78.65801C 323.617 78.65801 319.36 80.38501 315.87698 83.84001C 312.39297 87.29501 310.65198 91.53901 310.65198 96.57001C 310.65198 101.58401 312.39197 105.81701 315.87698 109.272C 319.359 112.728 323.615 114.455 328.645 114.455z" stroke="none" fill="#FFFFFF" fill-rule="nonzero" />
        <path d="M377.102 75.754C 383.051 75.754 388.094 77.772995 392.231 81.809C 396.36697 85.843994 398.434 90.765 398.434 96.573C 398.434 102.359 396.367 107.27 392.231 111.305C 388.094 115.341 383.051 117.359 377.102 117.359C 371.16998 117.359 366.147 115.341 362.03098 111.305C 357.91397 107.270004 355.85397 102.359 355.85397 96.573C 355.85397 90.765 357.91397 85.843994 362.03098 81.809C 366.146 77.772 371.17 75.754 377.102 75.754zM377.216 114.455C 382.225 114.455 386.451 112.727005 389.897 109.272C 393.341 105.817 395.063 101.584 395.063 96.57001C 395.063 91.53901 393.34 87.295006 389.897 83.84001C 386.453 80.38501 382.225 78.65801 377.216 78.65801C 372.188 78.65801 367.932 80.38501 364.449 83.84001C 360.965 87.29501 359.224 91.53901 359.224 96.57001C 359.224 101.58401 360.963 105.81701 364.449 109.272C 367.932 112.728 372.188 114.455 377.216 114.455z" stroke="none" fill="#FFFFFF" fill-rule="nonzero" />
        <path d="M409.208 76.277L409.208 114.222L429.11502 114.222L429.11502 116.835L406.09503 116.835L406.09503 76.277L409.208 76.277z" stroke="none" fill="#FFFFFF" fill-rule="nonzero" />
	</g>
    <path d="M16.818 62.277L427.785 62.277" stroke="#FFFFFF" stroke-width="2.126" fill="none" />
	<g>
		<g>
            <path d="M386.873 116.359C 386.30197 116.359 385.77798 116.094 385.435 115.632L385.435 115.632L385.413 115.601006C 385.284 115.423004 385.167 115.26301 383.99 111.27501C 382.444 111.99901 380.80698 112.46901 379.106 112.68001C 378.78098 113.44201 378.024 113.977005 377.14398 113.977005C 376.27197 113.977005 375.52 113.452 375.189 112.701004C 373.211 112.47401 371.281 111.886 369.51498 110.97201C 369.051 112.45801 365.58798 111.339005 366.20297 109.451004C 365.63696 109.448006 365.10498 109.226006 364.705 108.826004C 364.10898 108.228004 363.94098 107.354004 364.206 106.601006C 362.293 104.199005 361.111 101.358 360.75998 98.312004C 360.042 97.97 359.554 97.240005 359.554 96.388C 359.554 95.534004 360.043 94.804 360.763 94.461C 361.118 91.422 362.3 88.587 364.21 86.19C 363.93698 85.434006 364.102 84.553 364.705 83.949005C 365.108 83.547005 365.64398 83.324005 366.214 83.324005C 366.47598 83.324005 366.729 83.371 366.966 83.46001C 369.35602 81.590004 372.17 80.43901 375.18 80.09701C 375.505 79.33401 376.263 78.798004 377.14398 78.798004C 378.03198 78.798004 378.79498 79.344 379.11597 80.117004C 382.08698 80.48701 384.85797 81.647 387.21097 83.505005C 387.47897 83.38701 387.77197 83.324005 388.07196 83.324005C 388.64197 83.324005 389.17795 83.547005 389.58197 83.949005C 389.985 84.352005 390.20697 84.88801 390.20697 85.45901C 390.20697 85.76601 390.14197 86.063 390.01996 86.33501C 391.84796 88.68301 392.98697 91.43901 393.34497 94.38801C 394.15497 94.69201 394.73297 95.47301 394.73297 96.38801C 394.73297 97.30101 394.15698 98.08201 393.347 98.38601C 392.99298 101.33901 391.85498 104.10201 390.025 106.45401C 390.369 107.23701 390.221 108.18501 389.582 108.82501C 389.179 109.22701 388.643 109.45001 388.072 109.45001C 387.77698 109.45001 387.491 109.390015 387.227 109.27601C 387.18198 109.31101 387.138 109.34501 387.093 109.380005C 388.69998 114.119 388.697 114.339005 388.694 114.57001L388.694 114.57001L388.693 114.603004C 388.667 115.587 387.868 116.359 386.873 116.359z" stroke="none" fill="#000000" fill-rule="nonzero" />
		</g>
		<g>
			<g>
                <path d="M378.31302 80.932C 378.31302 81.25481 378.19888 81.53035 377.9706 81.758606C 377.74237 81.98687 377.46686 82.101 377.144 82.101C 376.82123 82.101 376.5457 81.98687 376.3174 81.758606C 376.08914 81.53035 375.975 81.25481 375.975 80.932C 375.975 80.60919 376.08914 80.33366 376.3174 80.10539C 376.5457 79.87714 376.82123 79.763 377.144 79.763C 377.46686 79.763 377.74237 79.87714 377.9706 80.10539C 378.19888 80.33366 378.31302 80.60919 378.31302 80.932C 378.31302 80.9456 378.31277 80.959206 378.3123 80.97279" stroke="none" fill="#FFFFFF" fill-rule="nonzero" />
			</g>
			<g>
                <path d="M378.31302 111.843C 378.31302 112.16582 378.19888 112.441345 377.9706 112.66961C 377.74237 112.89787 377.46686 113.01201 377.144 113.012C 376.82123 113.01201 376.5457 112.89787 376.3174 112.66961C 376.08914 112.441345 375.975 112.16582 375.975 111.843C 375.975 111.5202 376.08914 111.24466 376.3174 111.016396C 376.5457 110.78813 376.82123 110.674 377.144 110.674C 377.46686 110.674 377.74237 110.78813 377.9706 111.016396C 378.19888 111.24466 378.31302 111.5202 378.31302 111.843C 378.31302 111.85661 378.31277 111.87021 378.3123 111.8838" stroke="none" fill="#FFFFFF" fill-rule="nonzero" />
			</g>
		</g>
		<g>
			<g>
                <path d="M393.77002 96.388C 393.77005 96.71109 393.65582 96.98686 393.4273 97.21532C 393.19885 97.44377 392.9231 97.558 392.6 97.558C 392.27695 97.558 392.0012 97.44377 391.7727 97.21532C 391.54425 96.98686 391.43 96.71109 391.43 96.388C 391.43 96.06492 391.54425 95.78915 391.7727 95.560684C 392.0012 95.33223 392.27695 95.218 392.6 95.218C 392.9231 95.218 393.19885 95.33223 393.4273 95.560684C 393.65582 95.78915 393.77005 96.06492 393.77002 96.388C 393.77005 96.40162 393.7698 96.41523 393.7693 96.42883" stroke="none" fill="#FFFFFF" fill-rule="nonzero" />
			</g>
			<g>
                <path d="M362.858 96.388C 362.858 96.71109 362.74377 96.98686 362.5153 97.21532C 362.28683 97.44377 362.01108 97.558 361.688 97.558C 361.36493 97.558 361.08914 97.44377 360.8607 97.21532C 360.6322 96.98686 360.51797 96.71109 360.51797 96.388C 360.51797 96.06492 360.6322 95.78915 360.8607 95.560684C 361.08914 95.33223 361.36493 95.218 361.688 95.218C 362.01108 95.218 362.28683 95.33223 362.5153 95.560684C 362.74377 95.78915 362.858 96.06492 362.858 96.388C 362.858 96.40162 362.85776 96.41523 362.85727 96.42883" stroke="none" fill="#FFFFFF" fill-rule="nonzero" />
			</g>
		</g>
		<g>
			<g>
                <path d="M389.243 85.459C 389.24304 85.78209 389.12878 86.05786 388.9003 86.286316C 388.67188 86.51477 388.3961 86.629 388.073 86.629C 387.74994 86.629 387.47418 86.51477 387.2457 86.286316C 387.01724 86.05786 386.903 85.78209 386.90298 85.459C 386.903 85.13592 387.01724 84.860146 387.2457 84.63168C 387.47418 84.40323 387.74994 84.289 388.073 84.289C 388.3961 84.289 388.67188 84.40323 388.9003 84.63168C 389.12878 84.860146 389.24304 85.13592 389.243 85.459C 389.24304 85.47262 389.2428 85.48623 389.24228 85.49983" stroke="none" fill="#FFFFFF" fill-rule="nonzero" />
			</g>
			<g>
                <path d="M367.385 107.316C 367.385 107.63909 367.27078 107.91486 367.0423 108.14332C 366.81384 108.37178 366.5381 108.48601 366.215 108.486C 365.8919 108.48601 365.61615 108.37178 365.3877 108.14332C 365.15924 107.91486 365.04498 107.63909 365.04498 107.316C 365.04498 106.99292 365.15924 106.71715 365.3877 106.488686C 365.61615 106.26024 365.8919 106.14601 366.215 106.146C 366.5381 106.14601 366.81384 106.26024 367.0423 106.488686C 367.27078 106.71715 367.385 106.99292 367.385 107.316C 367.385 107.32962 367.38477 107.34323 367.38428 107.356834" stroke="none" fill="#FFFFFF" fill-rule="nonzero" />
			</g>
		</g>
		<g>
			<g>
                <path d="M367.385 85.459C 367.385 85.78209 367.27078 86.05786 367.0423 86.286316C 366.81384 86.51477 366.5381 86.629 366.215 86.629C 365.8919 86.629 365.61615 86.51477 365.3877 86.286316C 365.15924 86.05786 365.04498 85.78209 365.04498 85.459C 365.04498 85.13592 365.15924 84.860146 365.3877 84.63168C 365.61615 84.40323 365.8919 84.289 366.215 84.289C 366.5381 84.289 366.81384 84.40323 367.0423 84.63168C 367.27078 84.860146 367.385 85.13592 367.385 85.459C 367.385 85.47262 367.38477 85.48623 367.38428 85.49983" stroke="none" fill="#FFFFFF" fill-rule="nonzero" />
			</g>
			<g>
                <path d="M389.243 107.316C 389.24304 107.63909 389.12878 107.91486 388.9003 108.14332C 388.67188 108.37178 388.3961 108.48601 388.073 108.486C 387.74994 108.48601 387.47418 108.37178 387.2457 108.14332C 387.01724 107.91486 386.903 107.63909 386.90298 107.316C 386.903 106.99292 387.01724 106.71715 387.2457 106.488686C 387.47418 106.26024 387.74994 106.14601 388.073 106.146C 388.3961 106.14601 388.67188 106.26024 388.9003 106.488686C 389.12878 106.71715 389.24304 106.99292 389.243 107.316C 389.24304 107.32962 389.2428 107.34323 389.24228 107.356834" stroke="none" fill="#FFFFFF" fill-rule="nonzero" />
			</g>
		</g>
		<g>
            <path d="M392.504 96.399C 392.50403 100.664024 390.9961 104.30444 387.98026 107.32027C 384.96442 110.33609 381.324 111.844 377.059 111.844C 372.79398 111.844 369.15356 110.33609 366.13773 107.32027C 363.1219 104.30444 361.61398 100.664024 361.61398 96.399C 361.61398 92.13399 363.1219 88.49356 366.13773 85.47774C 369.15356 82.461914 372.79398 80.95401 377.059 80.954C 381.324 80.95401 384.96442 82.461914 387.98026 85.47774C 390.9961 88.49356 392.50403 92.13399 392.504 96.399C 392.50403 96.578735 392.50085 96.75841 392.49457 96.93803" stroke="none" fill="#FFFFFF" fill-rule="nonzero" />
            <path d="M377.059 111.981C 368.46698 111.981 361.477 104.991005 361.477 96.399C 361.477 87.806 368.46698 80.816 377.059 80.816C 385.65198 80.816 392.642 87.806 392.642 96.399C 392.642 104.99 385.651 111.981 377.059 111.981zM377.059 81.091C 368.619 81.091 361.75198 87.958 361.75198 96.399C 361.75198 104.840004 368.61798 111.706 377.059 111.706C 385.5 111.706 392.367 104.840004 392.367 96.399C 392.367 87.958 385.499 81.091 377.059 81.091z" stroke="none" fill="#000000" fill-rule="nonzero" />
		</g>
		<g>
            <path d="M391.35498 96.399C 391.35498 100.34674 389.95926 103.71634 387.1678 106.5078C 384.37634 109.29927 381.00674 110.69501 377.059 110.695C 373.11127 110.69501 369.74167 109.29927 366.9502 106.5078C 364.15875 103.71634 362.763 100.34674 362.763 96.399C 362.763 92.45127 364.15875 89.08167 366.9502 86.29021C 369.74167 83.49874 373.11127 82.103004 377.059 82.103004C 381.00674 82.103004 384.37634 83.49874 387.1678 86.29021C 389.95926 89.08167 391.35498 92.45127 391.35498 96.399C 391.35498 96.56536 391.35208 96.73167 391.34628 96.89793" stroke="none" fill="#FFFFFF" fill-rule="nonzero" />
            <path d="M377.059 110.831C 369.09998 110.831 362.62598 104.356 362.62598 96.398C 362.62598 88.438 369.09998 81.963005 377.059 81.963005C 385.01898 81.963005 391.49298 88.438 391.49298 96.398C 391.492 104.357 385.019 110.831 377.059 110.831zM377.059 82.24C 369.25198 82.24 362.901 88.590996 362.901 96.397995C 362.901 104.204994 369.253 110.55599 377.059 110.55599C 384.867 110.55599 391.21698 104.203995 391.21698 96.397995C 391.217 88.591 384.866 82.24 377.059 82.24z" stroke="none" fill="#000000" fill-rule="nonzero" />
		</g>
		<g>
            <path d="M374.988 83.343L379.13 83.343L379.13 84.25L374.988 84.25z" stroke="none" fill="#000000" fill-rule="nonzero" />
		</g>
		<g>
			<g>
                <path d="M378.77 91.67C 378.522 90.886 378.68298 90.136 379.128 89.994995C 379.573 89.85399 380.13498 90.37599 380.383 91.159996C 380.58 91.783 380.51898 92.383995 380.262 92.674995C 381.098 95.044 387.741 113.883995 387.72998 114.556C 387.72998 114.564 387.72998 114.571 387.72998 114.577C 387.70898 115.37 386.68198 115.693 386.21 115.05701C 386.206 115.05101 386.201 115.045006 386.197 115.03901C 385.801 114.49501 380.416 95.25901 379.73898 92.839005C 379.362 92.749 378.966 92.293 378.77 91.67z" stroke="none" fill="#FFFFFF" fill-rule="nonzero" />
                <path d="M386.873 115.532C 386.56598 115.532 386.284 115.388 386.099 115.139L386.099 115.139L386.085 115.119C 385.68698 114.57 380.685 96.73 379.628 92.949005C 379.21698 92.80601 378.835 92.33101 378.638 91.71001C 378.511 91.309006 378.482 90.90001 378.554 90.562004C 378.633 90.19501 378.822 89.94701 379.086 89.86301C 379.148 89.84401 379.213 89.83401 379.27798 89.83401C 379.766 89.83401 380.275 90.36201 380.51297 91.118004C 380.70898 91.739006 380.66898 92.347 380.416 92.701004C 381.723 96.40301 387.878 113.879005 387.86697 114.55701L387.86697 114.55701L387.86697 114.58001C 387.852 115.176 387.35 115.532 386.873 115.532zM379.278 90.111C 379.24002 90.111 379.203 90.116 379.169 90.127C 379.00302 90.18 378.88 90.355995 378.823 90.621C 378.761 90.914 378.788 91.272 378.901 91.629005C 379.075 92.18301 379.433 92.62601 379.771 92.70701L379.771 92.70701L379.849 92.726006L379.871 92.80401C 382.107 100.80101 385.978 114.46601 386.308 114.961006L386.308 114.961006L386.319 114.976006C 386.455 115.159004 386.651 115.258 386.873 115.258C 387.218 115.258 387.581 115.00201 387.59198 114.575005L387.59198 114.575005L387.593 114.55501C 387.577 113.96001 382.896 100.55001 380.132 92.72101L380.132 92.72101L380.10498 92.64501L380.15897 92.584015C 380.38797 92.32301 380.42697 91.75501 380.25195 91.20101C 380.055 90.579 379.637 90.111 379.278 90.111z" stroke="none" fill="#000000" fill-rule="nonzero" />
			</g>
		</g>
	</g>
	<g>
		<g>
            <path d="M335.904 111.275C 334.358 111.999 332.72098 112.469 331.02 112.68C 330.69498 113.442 329.938 113.977 329.05798 113.977C 328.18597 113.977 327.434 113.451996 327.103 112.701C 325.125 112.474 323.195 111.885994 321.429 110.972C 320.965 112.458 320.88397 112.571 320.78497 112.707L320.78497 112.707L320.76398 112.734C 320.42197 113.194 319.899 113.46 319.32697 113.46C 318.33197 113.46 317.53296 112.687996 317.50797 111.703L317.50797 111.703L317.50595 111.675C 317.50296 111.489006 317.50095 111.339005 318.11594 109.450005C 317.54993 109.44701 317.01794 109.225006 316.61795 108.825005C 316.02194 108.227005 315.85394 107.353004 316.11896 106.600006C 314.20596 104.198006 313.02396 101.35701 312.67294 98.311005C 311.95496 97.969 311.46695 97.239006 311.46695 96.387C 311.46695 95.533005 311.95596 94.803 312.67596 94.46C 313.03098 91.421 314.21295 88.586 316.12296 86.188995C 315.84995 85.433 316.01495 84.551994 316.61795 83.948C 317.02097 83.546 317.55695 83.323 318.12695 83.323C 318.38895 83.323 318.64197 83.369995 318.87897 83.459C 321.26898 81.589 324.08298 80.438 327.09296 80.096C 327.41797 79.333 328.17596 78.797 329.05695 78.797C 329.94495 78.797 330.70795 79.342995 331.02893 80.116C 333.99994 80.486 336.77094 81.645996 339.12393 83.504C 339.39194 83.386 339.68494 83.323 339.98492 83.323C 340.55493 83.323 341.0909 83.546 341.49493 83.948C 341.89795 84.351 342.11993 84.887 342.11993 85.458C 342.11993 85.765 342.05493 86.062 341.93292 86.334C 343.76093 88.682 344.89993 91.438 345.25793 94.387C 346.06793 94.691 346.64594 95.472 346.64594 96.387C 346.64594 97.3 346.06995 98.081 345.25995 98.385C 344.90594 101.338005 343.76794 104.101006 341.93796 106.453C 342.28195 107.236 342.13397 108.184006 341.49496 108.824005C 341.09195 109.226006 340.55597 109.449005 339.98495 109.449005C 339.68994 109.449005 339.40396 109.38901 339.13995 109.275C 339.09494 109.310005 339.05096 109.344 339.00595 109.379C 339.142 109.277 335.904 111.275 335.904 111.275z" stroke="none" fill="#000000" fill-rule="nonzero" />
		</g>
		<g>
			<g>
                <path d="M330.22702 80.932C 330.22702 81.25481 330.11288 81.53035 329.8846 81.758606C 329.65637 81.98687 329.38083 82.101 329.058 82.101C 328.7352 82.101 328.45966 81.98687 328.2314 81.758606C 328.00317 81.53035 327.88904 81.25481 327.889 80.932C 327.88904 80.60919 328.00317 80.33366 328.2314 80.10539C 328.45966 79.87714 328.7352 79.763 329.058 79.763C 329.38083 79.763 329.65637 79.87714 329.8846 80.10539C 330.11288 80.33366 330.22702 80.60919 330.22702 80.932C 330.22702 80.9456 330.22678 80.959206 330.2263 80.97279" stroke="none" fill="#FFFFFF" fill-rule="nonzero" />
			</g>
			<g>
                <path d="M330.22702 111.843C 330.22702 112.16582 330.11288 112.441345 329.8846 112.66961C 329.65637 112.89787 329.38083 113.01201 329.058 113.012C 328.7352 113.01201 328.45966 112.89787 328.2314 112.66961C 328.00317 112.441345 327.88904 112.16582 327.889 111.843C 327.88904 111.5202 328.00317 111.24466 328.2314 111.016396C 328.45966 110.78813 328.7352 110.674 329.058 110.674C 329.38083 110.674 329.65637 110.78813 329.8846 111.016396C 330.11288 111.24466 330.22702 111.5202 330.22702 111.843C 330.22702 111.85661 330.22678 111.87021 330.2263 111.8838" stroke="none" fill="#FFFFFF" fill-rule="nonzero" />
			</g>
		</g>
		<g>
			<g>
                <path d="M345.68402 96.388C 345.68402 96.71109 345.5698 96.98686 345.3413 97.21532C 345.11285 97.44377 344.8371 97.558 344.514 97.558C 344.19095 97.558 343.91516 97.44377 343.6867 97.21532C 343.45825 96.98686 343.344 96.71109 343.344 96.388C 343.344 96.06492 343.45825 95.78915 343.6867 95.560684C 343.91516 95.33223 344.19095 95.218 344.514 95.218C 344.8371 95.218 345.11285 95.33223 345.3413 95.560684C 345.5698 95.78915 345.68402 96.06492 345.68402 96.388C 345.68402 96.40162 345.68378 96.41523 345.6833 96.42883" stroke="none" fill="#FFFFFF" fill-rule="nonzero" />
			</g>
			<g>
                <path d="M314.773 96.388C 314.773 96.71109 314.65878 96.98686 314.4303 97.21532C 314.20184 97.44377 313.9261 97.558 313.603 97.558C 313.2799 97.558 313.00415 97.44377 312.7757 97.21532C 312.54724 96.98686 312.43298 96.71109 312.43298 96.388C 312.43298 96.06492 312.54724 95.78915 312.7757 95.560684C 313.00415 95.33223 313.2799 95.218 313.603 95.218C 313.9261 95.218 314.20184 95.33223 314.4303 95.560684C 314.65878 95.78915 314.773 96.06492 314.773 96.388C 314.773 96.40162 314.77277 96.41523 314.77228 96.42883" stroke="none" fill="#FFFFFF" fill-rule="nonzero" />
			</g>
		</g>
		<g>
			<g>
                <path d="M341.157 85.459C 341.15704 85.78209 341.0428 86.05786 340.8143 86.286316C 340.58585 86.51477 340.3101 86.629 339.987 86.629C 339.66394 86.629 339.38818 86.51477 339.1597 86.286316C 338.9312 86.05786 338.817 85.78209 338.817 85.459C 338.817 85.13592 338.9312 84.860146 339.1597 84.63168C 339.38818 84.40323 339.66394 84.289 339.987 84.289C 340.3101 84.289 340.58585 84.40323 340.8143 84.63168C 341.0428 84.860146 341.15704 85.13592 341.157 85.459C 341.15704 85.47262 341.1568 85.48623 341.15628 85.49983" stroke="none" fill="#FFFFFF" fill-rule="nonzero" />
			</g>
			<g>
                <path d="M319.299 107.316C 319.299 107.63909 319.18478 107.91486 318.9563 108.14332C 318.72784 108.37178 318.4521 108.48601 318.129 108.486C 317.8059 108.48601 317.53015 108.37178 317.3017 108.14332C 317.07324 107.91486 316.95898 107.63909 316.95898 107.316C 316.95898 106.99292 317.07324 106.71715 317.3017 106.488686C 317.53015 106.26024 317.8059 106.14601 318.129 106.146C 318.4521 106.14601 318.72784 106.26024 318.9563 106.488686C 319.18478 106.71715 319.299 106.99292 319.299 107.316C 319.299 107.32962 319.29877 107.34323 319.29828 107.356834" stroke="none" fill="#FFFFFF" fill-rule="nonzero" />
			</g>
		</g>
		<g>
			<g>
                <path d="M319.299 85.459C 319.299 85.78209 319.18478 86.05786 318.9563 86.286316C 318.72784 86.51477 318.4521 86.629 318.129 86.629C 317.8059 86.629 317.53015 86.51477 317.3017 86.286316C 317.07324 86.05786 316.95898 85.78209 316.95898 85.459C 316.95898 85.13592 317.07324 84.860146 317.3017 84.63168C 317.53015 84.40323 317.8059 84.289 318.129 84.289C 318.4521 84.289 318.72784 84.40323 318.9563 84.63168C 319.18478 84.860146 319.299 85.13592 319.299 85.459C 319.299 85.47262 319.29877 85.48623 319.29828 85.49983" stroke="none" fill="#FFFFFF" fill-rule="nonzero" />
			</g>
			<g>
                <path d="M341.157 107.316C 341.15704 107.63909 341.0428 107.91486 340.8143 108.14332C 340.58585 108.37178 340.3101 108.48601 339.987 108.486C 339.66394 108.48601 339.38818 108.37178 339.1597 108.14332C 338.9312 107.91486 338.817 107.63909 338.817 107.316C 338.817 106.99292 338.9312 106.71715 339.1597 106.488686C 339.38818 106.26024 339.66394 106.14601 339.987 106.146C 340.3101 106.14601 340.58585 106.26024 340.8143 106.488686C 341.0428 106.71715 341.15704 106.99292 341.157 107.316C 341.15704 107.32962 341.1568 107.34323 341.15628 107.356834" stroke="none" fill="#FFFFFF" fill-rule="nonzero" />
			</g>
		</g>
		<g>
            <path d="M344.418 96.399C 344.418 100.664024 342.9101 104.30444 339.89426 107.32027C 336.87845 110.33609 333.23804 111.844 328.973 111.844C 324.708 111.844 321.06757 110.33609 318.05173 107.32027C 315.0359 104.30444 313.52798 100.664024 313.52798 96.399C 313.52798 92.13399 315.0359 88.49356 318.05173 85.47774C 321.06757 82.461914 324.708 80.95401 328.973 80.954C 333.23804 80.95401 336.87845 82.461914 339.89426 85.47774C 342.9101 88.49356 344.418 92.13399 344.418 96.399C 344.418 96.578735 344.41486 96.75841 344.40857 96.93803" stroke="none" fill="#FFFFFF" fill-rule="nonzero" />
            <path d="M328.973 111.981C 320.38098 111.981 313.391 104.991005 313.391 96.399C 313.391 87.806 320.38098 80.816 328.973 80.816C 337.56598 80.816 344.556 87.806 344.556 96.399C 344.556 104.99 337.565 111.981 328.973 111.981zM328.973 81.091C 320.533 81.091 313.666 87.958 313.666 96.399C 313.666 104.840004 320.53198 111.706 328.973 111.706C 337.414 111.706 344.281 104.840004 344.281 96.399C 344.281 87.958 337.413 81.091 328.973 81.091z" stroke="none" fill="#000000" fill-rule="nonzero" />
		</g>
		<g>
            <path d="M343.26898 96.399C 343.26898 100.34674 341.87326 103.71634 339.0818 106.5078C 336.29034 109.29927 332.92072 110.69501 328.973 110.695C 325.02527 110.69501 321.65567 109.29927 318.8642 106.5078C 316.07275 103.71634 314.677 100.34674 314.677 96.399C 314.677 92.45127 316.07275 89.08167 318.8642 86.29021C 321.65567 83.49874 325.02527 82.103004 328.973 82.103004C 332.92072 82.103004 336.29034 83.49874 339.0818 86.29021C 341.87326 89.08167 343.26898 92.45127 343.26898 96.399C 343.26898 96.56536 343.26608 96.73167 343.26028 96.89793" stroke="none" fill="#FFFFFF" fill-rule="nonzero" />
            <path d="M328.973 110.831C 321.01398 110.831 314.53998 104.356 314.53998 96.398C 314.53998 88.438 321.01398 81.963005 328.973 81.963005C 336.93298 81.963005 343.40698 88.438 343.40698 96.398C 343.406 104.357 336.933 110.831 328.973 110.831zM328.973 82.24C 321.166 82.24 314.815 88.590996 314.815 96.397995C 314.815 104.204994 321.167 110.55599 328.973 110.55599C 336.781 110.55599 343.13098 104.203995 343.13098 96.397995C 343.131 88.591 336.78 82.24 328.973 82.24z" stroke="none" fill="#000000" fill-rule="nonzero" />
		</g>
		<g>
            <path d="M326.902 83.343L331.044 83.343L331.044 84.25L326.902 84.25z" stroke="none" fill="#000000" fill-rule="nonzero" />
		</g>
		<g>
			<g>
                <path d="M327.433 88.771C 327.681 87.98701 327.52002 87.23701 327.07602 87.096C 326.63 86.955 326.06802 87.477 325.82 88.261C 325.62302 88.885 325.685 89.486 325.941 89.777C 325.105 92.146 318.462 110.985 318.47202 111.658005C 318.47202 111.66501 318.47302 111.672005 318.47302 111.67901C 318.49402 112.47101 319.52103 112.795006 319.993 112.158005C 319.99802 112.15301 320.002 112.146 320.006 112.14001C 320.402 111.59601 325.78702 92.36001 326.46402 89.94C 326.841 89.85 327.235 89.395 327.433 88.771z" stroke="none" fill="#FFFFFF" fill-rule="nonzero" />
                <path d="M319.329 112.633C 318.85202 112.633 318.35 112.278 318.33502 111.68201L318.33502 111.68201L318.334 111.661C 318.324 110.98 324.479 93.506004 325.786 89.804C 325.532 89.450005 325.492 88.842 325.68802 88.221C 325.92603 87.465004 326.43503 86.937004 326.923 86.937004C 326.988 86.937004 327.05402 86.94701 327.115 86.966C 327.641 87.132 327.83798 87.944 327.563 88.814C 327.36697 89.435005 326.98398 89.91 326.57397 90.053C 325.12897 95.219 320.50397 111.687004 320.11496 112.224L320.11496 112.224L320.10696 112.236C 319.918 112.49 319.636 112.633 319.329 112.633zM326.924 87.211C 326.566 87.211 326.148 87.68 325.95102 88.303C 325.77502 88.857 325.81403 89.424 326.044 89.685L326.044 89.685L326.098 89.745995L326.072 89.823C 323.30698 97.653 318.62598 111.062 318.61 111.656L318.61 111.656L318.611 111.675995C 318.62198 112.103 318.985 112.35899 319.33 112.35899C 319.55197 112.35899 319.748 112.258995 319.883 112.077995L319.883 112.077995L319.895 112.062C 320.223 111.56799 324.095 97.903 326.332 89.906L326.332 89.906L326.354 89.827995L326.432 89.809C 326.77002 89.727 327.12802 89.284 327.303 88.730995C 327.52402 88.032 327.401 87.343994 327.034 87.229C 326.999 87.216 326.962 87.211 326.924 87.211z" stroke="none" fill="#000000" fill-rule="nonzero" />
			</g>
		</g>
	</g>
</g>
</svg>